# xmcd
# 
# Track frame offsets:
#     150
#     16500
#     30804
#     45338
#     60817
#     79733
#     95659
#     107968
#     120259
#     132605
#     145685
# 
# Disc length: 2076
# 
# Revision: 2
# Processed by: cddbd v1.5.2PL0 Copyright (c) Steve Scherf et al.
# Submitted via: fre:ac v1.0.31
# 
DISCID=78081a0b
DTITLE=Original Soundtrack - Descendants 2
DYEAR=2017
DGENRE=Soundtrack
TTITLE0=Dove Cameron, Sofia Carson, Cameron Boyce and Booboo Stewart - Ways To Be Wicked
TTITLE1=China Anne McClain, Thomas Doherty and Dylan Playfair - What's My Name?
TTITLE2=Sofia Carson, Cameron Boyce, Booboo Stewart and Mitchell Hope - Chillin' Like a Villain
TTITLE3=Dove Cameron and Sofia Carson - Space Between
TTITLE4=Dove Cameron, Sofia Carson, Cameron Boyce, Booboo Stewart, China Anne McClain, Mitchell Hope, Thomas Doherty and Dylan Playfair - It's Goin' Down
TTITLE5=Dove Cameron, Sofia Carson, Cameron Boyce, Booboo Stewart, Mitchell Hope and Jeff Lewis - You and Me
TTITLE6=Dove Cameron, Sofia Carson, Cameron Boyce, Booboo Stewart, China Anne McClain and Thomas Doherty - Kiss The Girl
TTITLE7=China Anne McClain - Poor Unfortunate Souls
TTITLE8=Dove Cameron and Sofia Carson - Better Together
TTITLE9=Dove Cameron - Evil
TTITLE10=Dove Cameron and Sofia Carson - Rather Be With You
EXTD=
EXTT0=
EXTT1=
EXTT2=
EXTT3=
EXTT4=
EXTT5=
EXTT6=
EXTT7=
EXTT8=
EXTT9=
EXTT10=
PLAYORDER=
